# xmcd
#
# Track frame offsets:
#	150
#	10320
#	20045
#	32005
#	44885
#	61042
#	74767
#	86302
#	95732
#	105162
#	115152
#	124457
#	135942
#	144350
#	154565
#	166162
#
# Disc length: 2379 seconds
#
# Revision: 0
# Processed by: cddbd v1.5.1PL2 Copyright (c) Steve Scherf et al.
# Submitted via: dBpowerAMP V4.0
#
DISCID=d1094910
DTITLE=Various Artist - Northern Soul Memories - Disc 1
DYEAR=1999
DGENRE=Soul
TTITLE0=Richard Temple - That Beatin' Rhythm
TTITLE1=Fascinations - Girls Are  Out To Get You
TTITLE2=Showstoppers - Ain't Nothin' But A Houseparty
TTITLE3=Fathers Angels - Bok To Bach
TTITLE4=Exciters - Reaching For The Best
TTITLE5=Evelyn Thomas - Weak Spot
TTITLE6=Guys From Uncle - The Spy
TTITLE7=John Leach - Put That Woman Down
TTITLE8=Kenny Bernard - Ain't No Soul
TTITLE9=Jason Knight - Our Love Is Getting Stronger
TTITLE10=Lorraine Silver - Lost Summer Love
TTITLE11=Checkerboard Squares - Double Cookin'
TTITLE12=Bob Relf - Blowin' My Mind To Pieces
TTITLE13=Lee Rodgers - Sock Some Love Power To Me
TTITLE14=Ronnie and Robin - Sidra's Theme
TTITLE15=J. J. Barnes - Our Love Is In The Pocket
EXTD=
EXTT0=
EXTT1=
EXTT2=
EXTT3=
EXTT4=
EXTT5=
EXTT6=
EXTT7=
EXTT8=
EXTT9=
EXTT10=
EXTT11=
EXTT12=
EXTT13=
EXTT14=
EXTT15=
PLAYORDER=
